<?xml version="1.0" encoding="UTF-8"?>
<svg id="Layer_2" data-name="Layer 2" xmlns="http://www.w3.org/2000/svg" viewBox="0 0 513.93 513.93">
  <defs>
    <style>
      .cls-1 {
        fill: #0e0e0f;
        stroke-width: 0px;
      }
    </style>
  </defs>
  <g id="Objects">
    <g>
      <circle class="cls-1" cx="170.68" cy="140.06" r="35.33"/>
      <rect class="cls-1" x="141.24" y="198.93" width="58.88" height="176.63" rx="2" ry="2"/>
      <path class="cls-1" d="M400.29,263.7v100.09c0,6.48-5.3,11.78-11.78,11.78h-35.33c-6.48,0-11.78-5.3-11.78-11.78v-82.43c0-16.25-13.19-29.44-29.44-29.44s-29.44,13.19-29.44,29.44v82.43c0,6.48-5.3,11.78-11.78,11.78h-35.33c-6.48,0-11.78-5.3-11.78-11.78v-153.08c0-6.48,5.3-11.78,11.78-11.78h35.33c6.48,0,11.78,5.3,11.78,11.78v7.54c11.78-15.25,31.26-25.2,52.99-25.2,32.5,0,64.76,23.55,64.76,70.65Z"/>
      <path class="cls-1" d="M403.93,513.93H110c-60.65,0-110-49.35-110-110V110C0,49.35,49.35,0,110,0h293.93c60.65,0,110,49.35,110,110v293.93c0,60.65-49.35,110-110,110ZM110,20c-49.63,0-90,40.37-90,90v293.93c0,49.63,40.37,90,90,90h293.93c49.63,0,90-40.37,90-90V110c0-49.63-40.37-90-90-90H110Z"/>
    </g>
  </g>
</svg>