<?xml version="1.0" encoding="UTF-8"?>
<svg id="Layer_1" data-name="Layer 1" xmlns="http://www.w3.org/2000/svg" version="1.1" viewBox="0 0 1000 1000">
  <defs>
    <style>
      .cls-1 {
        fill: #ffceff;
        isolation: isolate;
      }

      .cls-1, .cls-2 {
        stroke-width: 0px;
      }

      .cls-2 {
        fill: #000;
      }
    </style>
  </defs>
  <path class="cls-2" d="M474.7,0c260.6,0,476.1,215.1,476.1,475.6s-215,475.2-475.6,475.2S0,735.8,0,475.6,214.6,0,474.7,0h0ZM474.7,95.1c-210.5,0-379.1,169.6-379.1,380.5s168.6,380.1,379.6,380.1,381-169.6,380.5-380.1c-.5-210.9-170-380.5-381-380.5ZM600.6,571.2c29.9,0,60.7-5.9,78.6-12.8,6-1.9,9.7-2.8,13.8-2.8,7.8,0,15.2,6.4,15.2,16.1s-.5,9.2-3.2,15.6c-33.6,81.8-124.6,146.2-230.3,146.2s-255.5-104.4-255.5-250,61.6-201.8,153.5-238.1c6.4-2.3,12.4-3.2,16.1-3.2,9.6,0,15.2,7.8,15.2,15.2s-.3,5.6-1.6,9.5l-1.7,4.2c-8.2,20.7-15.6,58.4-15.6,87.4,0,130.9,84.1,212.7,215.5,212.7h0Z"/>
  <path class="cls-1" d="M474.7,0c260.6,0,476.1,215.1,476.1,475.6s-215,475.2-475.6,475.2S0,735.8,0,475.6,214.6,0,474.7,0h0ZM474.7,95.1c-210.5,0-379.1,169.6-379.1,380.5s168.6,380.1,379.6,380.1,381-169.6,380.5-380.1c-.5-210.9-170-380.5-381-380.5ZM600.6,571.2c29.9,0,60.7-5.9,78.6-12.8,6-1.9,9.7-2.8,13.8-2.8,7.8,0,15.2,6.4,15.2,16.1s-.5,9.2-3.2,15.6c-33.6,81.8-124.6,146.2-230.3,146.2s-255.5-104.4-255.5-250,61.6-201.8,153.5-238.1c6.4-2.3,12.4-3.2,16.1-3.2,9.6,0,15.2,7.8,15.2,15.2s-.3,5.6-1.6,9.5l-1.7,4.2c-8.2,20.7-15.6,58.4-15.6,87.4,0,130.9,84.1,212.7,215.5,212.7h0Z"/>
</svg>